# xmcd
#
# Track frame offsets: 
#        150
#        11321
#        27479
#        43979
#        66040
#        82893
#        97078
#        110173
#        127919
#        142067
#        157691
#        176003
#        189784
#        210136
#        229095
#        242547
#        258709
#        274891
#
# Disc length: 3799 seconds
#
# Revision: 0
# Processed by: cddbd v1.5.2PL0 Copyright (c) Steve Scherf et al.
# Submitted via: ExactAudioCopy v1.1
#
DISCID=ef0ed512
DTITLE=Louis Neefs - Louis Neefs 80 - CD 2
DYEAR=2017
DGENRE=Chanson
TTITLE0=Martine
TTITLE1=Aan Het Strand Van Oostende
TTITLE2=Annelies Uit Sas Van Gent
TTITLE3=Zondagmiddag Lilian
TTITLE4='t Winkeltje
TTITLE5=We Zullen Wel Zien
TTITLE6=Zomerzon En Zee
TTITLE7=Welkom Thuis
TTITLE8=Ik Kan Je Niet Vergeten
TTITLE9=Kinderen
TTITLE10=De Duivels Van Loudun
TTITLE11=Atahualpa
TTITLE12=M'n Dorp In De Kempen
TTITLE13=Ik Kan Nooit Zonder Jou
TTITLE14=Vaarwel
TTITLE15=Toch Ben Je Oma
TTITLE16=Mechelen
TTITLE17=Carolientje
EXTD=
EXTT0=
EXTT1=
EXTT2=
EXTT3=
EXTT4=
EXTT5=
EXTT6=
EXTT7=
EXTT8=
EXTT9=
EXTT10=
EXTT11=
EXTT12=
EXTT13=
EXTT14=
EXTT15=
EXTT16=
EXTT17=
PLAYORDER=
